<svg width="300" height="300" viewBox="0 0 250 250" fill="none" xmlns="http://www.w3.org/2000/svg">
<g clip-path="url(#clip0_118_34)">
<path d="M111.261 47.5078C111.212 47.5078 111.164 47.5057 111.115 47.5021C107.908 47.2545 96.9349 45.389 90.3814 31.7712C89.8973 30.7661 89.9929 29.4871 90.6195 28.5895C96.0924 23.2403 100.368 17.4511 102.891 11.0183C103.347 10.3657 104.031 10.009 104.723 10.0237C105.433 10.0439 106.088 10.446 106.519 11.1269C109.631 16.0404 115.773 24.7383 121.954 27.7879C122.649 28.131 123.152 28.8271 123.334 29.699C123.515 30.5636 123.348 31.4549 122.875 32.1442L113.044 46.4901C112.602 47.1354 111.944 47.5078 111.261 47.5078Z" fill="#E6E6E6"/>
<path d="M92.6483 29.4535C92.4809 29.6938 92.4503 30.0363 92.5723 30.307C98.5009 43.4269 109.1 44.4562 111.165 44.5291C111.364 44.5428 111.55 44.4352 111.676 44.2511L121.436 30.0085C121.575 29.8066 121.617 29.549 121.554 29.3003C121.489 29.0506 121.332 28.8644 121.121 28.7909C114.492 26.4627 107.537 15.6789 105.563 12.429C105.448 12.2391 105.27 12.1252 105.075 12.1174C104.874 12.115 104.691 12.2097 104.564 12.3922C101.739 19.0098 97.7852 24.7112 92.6483 29.4535Z" fill="white"/>
<path d="M97.5632 32.5267L106.41 21.6857C107.015 20.9447 106.068 19.8042 105.462 20.5462L96.615 31.3871C96.0102 32.1282 96.9577 33.2687 97.5632 32.5267Z" fill="#E6E6E6"/>
<path d="M102.903 35.5809C105.345 32.9508 107.467 29.9055 109.204 26.5639C109.663 25.6818 108.503 24.8719 108.046 25.7505C106.366 28.9811 104.315 31.8989 101.955 34.4414C101.311 35.1351 102.262 36.2717 102.903 35.5809Z" fill="#E6E6E6"/>
<path d="M107.716 39.2381C109.939 36.2786 111.831 32.9756 113.321 29.4127C113.707 28.4884 112.551 27.6714 112.163 28.5993C110.724 32.0417 108.916 35.2385 106.767 38.0986C106.19 38.8667 107.136 40.0099 107.716 39.2381Z" fill="#E6E6E6"/>
<path d="M119.307 51.8054C119.258 51.8054 119.21 51.8033 119.161 51.7996C115.954 51.552 104.981 49.6865 98.4274 36.0688C97.9433 35.0637 98.0389 33.7847 98.6655 32.8871C103.865 27.4674 107.78 21.5409 110.937 15.3159C111.393 14.6633 112.077 14.3065 112.769 14.3212C113.479 14.3414 114.134 14.7435 114.565 15.4245C117.677 20.3379 123.819 29.0359 130 32.0855C130.695 32.4286 131.198 33.1247 131.38 33.9966C131.561 34.8612 131.394 35.7525 130.921 36.4418L121.09 50.7877C120.648 51.433 119.99 51.8054 119.307 51.8054Z" fill="#E6E6E6"/>
<path d="M100.694 33.7511C100.527 33.9914 100.496 34.3339 100.618 34.6046C106.547 47.7245 117.146 48.7538 119.211 48.8267C119.41 48.8403 119.596 48.7328 119.722 48.5487L129.482 34.3061C129.621 34.1041 129.663 33.8466 129.6 33.5979C129.535 33.3482 129.378 33.162 129.167 33.0885C122.538 30.7603 115.583 19.9765 113.609 16.7265C113.494 16.5366 113.316 16.4228 113.121 16.4149C112.92 16.4126 112.737 16.5073 112.61 16.6898C109.226 23.4458 105.421 29.4345 100.694 33.7511Z" fill="white"/>
<path d="M105.609 36.8243L114.456 25.9833C115.061 25.2423 114.114 24.1018 113.508 24.8437L104.661 35.6847C104.056 36.4258 105.004 37.5663 105.609 36.8243Z" fill="#E6E6E6"/>
<path d="M110.949 39.8785C113.391 37.2484 115.513 34.2031 117.25 30.8615C117.709 29.9794 116.549 29.1695 116.092 30.0481C114.412 33.2787 112.361 36.1965 110.001 38.7389C109.357 39.4326 110.308 40.5693 110.949 39.8785Z" fill="#E6E6E6"/>
<path d="M115.762 43.5357C117.985 40.5762 119.877 37.2732 121.367 33.7103C121.753 32.786 120.597 31.969 120.209 32.8969C118.77 36.3393 116.962 39.5361 114.813 42.3961C114.236 43.1643 115.182 44.3075 115.762 43.5357Z" fill="#E6E6E6"/>
<path d="M207.365 151.724C207.317 151.724 207.268 151.722 207.22 151.718C204.013 151.471 193.04 149.605 186.486 135.987C186.002 134.982 186.098 133.703 186.724 132.806L198.996 115.235C199.451 114.582 200.135 114.225 200.827 114.24C201.538 114.26 202.45 114.513 202.624 115.343C204.038 122.086 210.126 130.843 218.059 132.004C218.804 132.113 219.256 133.043 219.439 133.915C219.62 134.78 219.452 135.671 218.98 136.36L209.149 150.706C208.707 151.352 208.049 151.724 207.365 151.724Z" fill="#E6E6E6"/>
<path d="M188.753 133.67C188.586 133.91 188.555 134.253 188.677 134.523C194.606 147.643 205.205 148.672 207.27 148.745C207.468 148.759 207.655 148.651 207.781 148.467L217.541 134.225C217.679 134.023 217.722 133.765 217.658 133.517C217.594 133.267 217.445 133.02 217.226 133.007C208.788 132.531 202.011 121.566 201.668 116.645C201.652 116.411 201.374 116.341 201.179 116.334C200.979 116.331 200.796 116.426 200.668 116.609L188.753 133.67Z" fill="white"/>
<path d="M193.668 136.743L202.515 125.902C203.12 125.161 202.172 124.02 201.567 124.762L192.72 135.603C192.115 136.344 193.062 137.485 193.668 136.743Z" fill="#E6E6E6"/>
<path d="M199.008 139.797C201.449 137.167 203.571 134.122 205.309 130.78C205.767 129.898 204.608 129.088 204.151 129.967C202.471 133.197 200.42 136.115 198.06 138.658C197.416 139.351 198.366 140.488 199.008 139.797Z" fill="#E6E6E6"/>
<path d="M203.82 143.454C206.043 140.495 207.936 137.192 209.426 133.629C209.812 132.705 208.656 131.888 208.268 132.816C206.828 136.258 205.021 139.455 202.872 142.315C202.295 143.083 203.241 144.226 203.82 143.454Z" fill="#E6E6E6"/>
<path d="M170.603 245.386L165.302 245.385L162.78 220.812L170.604 220.813L170.603 245.386Z" fill="#FFB6B6"/>
<path d="M152.441 245.241C152.276 245.575 152.188 246.654 152.188 247.042C152.188 248.236 152.994 249.204 153.988 249.204H170.404C171.082 249.204 171.632 248.544 171.632 247.729V246.908C171.632 246.908 172.444 244.439 170.772 241.396C170.772 241.396 168.694 243.779 165.589 240.047L164.673 238.054L158.045 243.879L154.371 244.423C153.567 244.542 152.854 244.404 152.441 245.241Z" fill="#2F2E41"/>
<path d="M219.553 232.814L215.038 236.151L202.176 216.81L208.84 211.883L219.553 232.814Z" fill="#FFB6B6"/>
<path d="M204.021 244.127C204.026 244.516 204.422 245.489 204.591 245.82C205.112 246.837 206.22 247.154 207.067 246.529L221.049 236.191C221.627 235.764 221.807 234.855 221.451 234.162L221.093 233.462C221.093 233.462 220.709 230.848 217.958 229.309C217.958 229.309 217.227 232.647 212.955 231.424L211.306 230.303L208.2 239.438L205.308 242.215C204.675 242.822 204.008 243.154 204.021 244.127Z" fill="#2F2E41"/>
<path d="M186.235 130.454C185.972 129.078 185.992 127.743 186.239 126.636L183.044 113.729L188.245 112.034L190.925 125.31C191.547 126.171 192.048 127.359 192.31 128.734C192.91 131.877 192.036 134.809 190.358 135.284C188.68 135.759 186.834 133.596 186.235 130.454Z" fill="#FFB6B6"/>
<path d="M156.645 44.415C156.645 44.415 165.026 40.031 169.706 46.3662C173.965 52.1326 182.612 69.4843 181.724 71.1725L190.237 119.512L183.927 121.848L167.189 66.2465L156.645 44.415Z" fill="#DDFF00"/>
<path d="M147.415 116.052L151.733 176.596L162.169 232.815L173.324 231.518L167.926 170.109L171.23 115.535L147.415 116.052Z" fill="#2F2E41"/>
<path d="M148.308 129.189L175.203 180.645L205.891 224.892L215.315 217.603L187.131 165.971C182.817 143.228 178.04 122.175 169.285 115.631L148.308 129.189Z" fill="#2F2E41"/>
<path d="M149.877 129.441C148.616 129.441 147.394 128.907 146.398 127.892C145.062 126.53 144.365 124.544 144.488 122.443L146.834 95.391L145.938 65.8501L145.943 65.8181L148.729 49.7651C148.756 49.2549 148.845 48.7149 148.989 48.1963L153.103 33.3305C153.843 30.6566 155.915 28.8601 158.26 28.8601H161.898C163.72 28.8601 165.411 29.9473 166.421 31.7688L169.606 37.5101C169.817 37.8914 169.996 38.3009 170.136 38.7271L177.167 60.0532C177.39 60.7302 177.518 61.4423 177.545 62.1697L179.726 121.356C179.799 123.32 179.141 125.201 177.922 126.515C176.71 127.821 175.093 128.398 173.49 128.101C164.308 126.397 156.273 127.79 151.148 129.26C150.725 129.381 150.299 129.441 149.877 129.441Z" fill="#DDFF00"/>
<path d="M148.855 70.6444L142.737 65.0225C142.737 65.0225 145.616 34.3182 153.173 34.3182C160.729 34.3182 164.688 29.1287 164.688 29.1287C164.688 29.1287 191.676 74.5365 184.119 79.726C176.563 84.9155 166.127 82.3208 166.127 82.3208L162.452 43.5304C162 41.4799 159.652 41.2578 158.939 43.1982L148.855 70.6444Z" fill="#3F3D56"/>
<path d="M158.918 27.537C164.695 27.537 169.378 21.909 169.378 14.9665C169.378 8.024 164.695 2.396 158.918 2.396C153.141 2.396 148.458 8.024 148.458 14.9665C148.458 21.909 153.141 27.537 158.918 27.537Z" fill="#FFB6B6"/>
<path d="M167.201 24.4694C166.258 24.8928 164.811 25.5511 163.868 25.9744C162.988 23.8663 164.066 22.7724 164.178 20.4177C164.215 19.6319 164.31 18.8452 164.255 18.0608C164.201 17.2764 163.977 16.4713 163.485 15.9523C162.731 15.1583 161.477 15.2874 160.748 16.1132C160.019 16.9389 159.811 18.3033 160.109 19.4528C157.241 17.9629 155.388 14.0541 155.784 10.3294C154.928 9.92591 154.05 9.51696 153.13 9.48609C152.211 9.45522 151.225 9.87695 150.735 10.8126C150.392 11.4688 150.323 12.3016 149.937 12.9231C149.311 13.9329 147.957 14.0112 147.125 13.2452C146.293 12.4792 145.974 11.0871 146.152 9.84565C146.329 8.60416 145.038 6.07061 145.761 5.15839C146.254 4.53609 148.701 5.41784 149.251 4.86889C149.753 4.36806 150.257 3.86557 150.81 3.45008C151.512 2.92268 152.29 2.54075 153.099 2.32614C153.864 2.12314 154.65 2.06981 155.432 2.01714C156.226 1.96366 157.324 0.0637269 158.118 0.010249C160.456 -0.147193 162.545 1.5492 164.787 2.35683C167.03 3.16447 168.441 5.4837 169.683 7.86935C171.451 11.2675 170.85 14.9909 169.632 18.2402C169.331 19.0433 170.341 19.8874 170.192 20.7497C170.053 21.5512 169.428 22.1318 169.282 22.9315C169.157 23.6154 168.418 22.8231 168.242 23.4905C168.09 24.0663 167.642 24.4729 167.163 24.6567C166.684 24.8406 166.171 24.8368 165.669 24.8313" fill="#2F2E41"/>
<path d="M164.956 28.8061L165.325 29.1287L166.254 29.9419C169.048 32.3868 168.789 37.4904 165.767 39.5076L161.989 32.2547" fill="#3F3D56"/>
<path d="M225.746 240.689C226.67 240.758 227.18 239.379 226.481 238.576L226.412 238.244C226.421 238.217 226.43 238.191 226.44 238.164C227.373 235.488 230.539 235.506 231.464 238.186C232.286 240.565 233.333 242.948 233.59 245.463C233.706 246.574 233.654 247.705 233.449 248.794C235.375 243.739 236.388 238.219 236.388 232.667C236.388 231.272 236.324 229.877 236.194 228.486C236.088 227.348 235.94 226.217 235.75 225.096C234.719 219.038 232.487 213.268 229.268 208.449C227.721 207.432 226.43 205.843 225.651 203.938C225.371 203.251 225.151 202.512 225.047 201.759C225.223 201.787 225.711 198.564 225.579 198.366C225.824 197.918 226.263 197.696 226.531 197.259C227.864 195.087 229.701 195.466 230.66 198.418C232.708 199.66 232.728 201.721 231.471 203.702C230.672 204.963 230.562 206.669 229.86 208.018C229.932 208.129 230.007 208.237 230.08 208.348C231.403 210.388 232.548 212.581 233.513 214.885C233.24 212.325 233.643 209.24 234.329 207.252C235.111 204.986 236.576 203.078 237.865 201.12C239.415 198.767 242.592 199.794 242.865 202.776C242.867 202.805 242.87 202.834 242.872 202.862C242.681 202.992 242.493 203.13 242.31 203.276C241.264 204.107 241.625 206.055 242.865 206.285L242.893 206.291C242.823 207.12 242.705 207.942 242.532 208.751C244.186 216.441 240.614 219.242 235.513 219.368C235.401 219.437 235.291 219.507 235.178 219.573C235.695 221.321 236.108 223.115 236.414 224.933C236.688 226.54 236.879 228.163 236.986 229.794C237.118 231.852 237.107 233.92 236.962 235.974L236.971 235.901C237.338 233.639 238.36 231.526 239.844 230.061C242.054 227.879 245.178 227.075 247.563 225.321C248.711 224.477 250.182 225.568 249.981 227.167L249.972 227.244C249.617 227.417 249.27 227.619 248.935 227.844C248.744 227.974 248.556 228.112 248.373 228.258C247.327 229.089 247.688 231.037 248.927 231.267L248.955 231.272C248.976 231.276 248.993 231.279 249.013 231.283C248.404 233.021 247.555 234.634 246.493 236.026C245.458 242.739 241.014 243.376 236.261 241.421H236.258C235.738 244.141 234.979 246.799 234.003 249.332H225.948C225.919 249.224 225.893 249.113 225.867 249.006C226.612 249.061 227.363 249.009 228.096 248.846C227.499 247.965 226.901 247.077 226.303 246.195C226.289 246.178 226.277 246.161 226.266 246.143C225.963 245.692 225.657 245.245 225.353 244.794L225.353 244.793C225.334 243.408 225.473 242.028 225.746 240.689Z" fill="#F2F2F2"/>
<path d="M86.4833 249.361C86.4833 249.715 86.7202 250 87.0153 250H249.405C249.7 250 249.937 249.715 249.937 249.361C249.937 249.006 249.7 248.721 249.405 248.721H87.0153C86.7202 248.721 86.4833 249.006 86.4833 249.361Z" fill="#CCCCCC"/>
<path d="M112.205 43.7665C113.148 44.5146 113.873 45.4568 114.313 46.4179L123.674 52.8623L120.992 58.1256L111.785 51.0216C110.877 50.9127 109.871 50.4827 108.928 49.7346C106.773 48.0256 105.76 45.3041 106.665 43.6561C107.569 42.0081 110.05 42.0575 112.205 43.7665Z" fill="#FFB6B6"/>
<path d="M156.246 36.9731C162.215 32.5735 168.214 42.6487 162.907 48.1381L162.888 48.1568L141.682 72.1273L116.302 57.0656L118.812 48.9333L138.475 58.2941L153.224 39.8919C154.251 38.6565 155.261 37.6989 156.246 36.9731Z" fill="#DDFF00"/>
<path d="M30.5278 76.9973C30.0347 76.9973 29.6338 77.4791 29.6338 78.0717V94.7248C29.6338 95.3173 30.0347 95.7992 30.5278 95.7992C31.0208 95.7992 31.4218 95.3173 31.4218 94.7248V78.0717C31.4218 77.4791 31.0208 76.9973 30.5278 76.9973Z" fill="#3F3D56"/>
<path d="M39.2894 93.044C42.3662 93.044 44.8605 90.1095 44.8605 86.4898C44.8605 82.87 42.3662 79.9356 39.2894 79.9356C36.2126 79.9356 33.7184 82.87 33.7184 86.4898C33.7184 90.1095 36.2126 93.044 39.2894 93.044Z" fill="#DDFF00"/>
<path d="M83.9503 84.2476H53.9635C52.9347 84.2476 52.0977 83.2417 52.0977 82.0053C52.0977 80.769 52.9347 79.7631 53.9635 79.7631H83.9503C84.9791 79.7631 85.8161 80.769 85.8161 82.0053C85.8161 83.2417 84.9791 84.2476 83.9503 84.2476Z" fill="#F2F2F2"/>
<path d="M107.352 91.8366H53.9635C52.9347 91.8366 52.0977 90.8307 52.0977 89.5944C52.0977 88.3581 52.9347 87.3522 53.9635 87.3522H107.352C108.381 87.3522 109.218 88.3581 109.218 89.5944C109.218 90.8307 108.381 91.8366 107.352 91.8366Z" fill="#F2F2F2"/>
<path d="M5.57107 128.488C8.64789 128.488 11.1421 125.554 11.1421 121.934C11.1421 118.314 8.64789 115.38 5.57107 115.38C2.49425 115.38 0 118.314 0 121.934C0 125.554 2.49425 128.488 5.57107 128.488Z" fill="#DDFF00"/>
<path d="M50.232 119.692H20.2451C19.2164 119.692 18.3794 118.686 18.3794 117.45C18.3794 116.213 19.2164 115.208 20.2451 115.208H50.232C51.2607 115.208 52.0977 116.213 52.0977 117.45C52.0977 118.686 51.2607 119.692 50.232 119.692Z" fill="#F2F2F2"/>
<path d="M57.8958 149.982C60.9727 149.982 63.4669 147.047 63.4669 143.427C63.4669 139.808 60.9727 136.873 57.8958 136.873C54.819 136.873 52.3248 139.808 52.3248 143.427C52.3248 147.047 54.819 149.982 57.8958 149.982Z" fill="#DDFF00"/>
<path d="M125.959 148.774H72.5698C71.5411 148.774 70.7041 147.768 70.7041 146.532C70.7041 145.296 71.5411 144.29 72.5698 144.29H125.959C126.987 144.29 127.824 145.296 127.824 146.532C127.824 147.768 126.987 148.774 125.959 148.774Z" fill="#F2F2F2"/>
<path d="M112.769 27.4296C115.845 27.4296 118.34 24.4952 118.34 20.8754C118.34 17.2557 115.845 14.3213 112.769 14.3213C109.692 14.3213 107.198 17.2557 107.198 20.8754C107.198 24.4952 109.692 27.4296 112.769 27.4296Z" fill="#DDFF00"/>
<path d="M215.315 137.307C218.392 137.307 220.887 134.372 220.887 130.753C220.887 127.133 218.392 124.199 215.315 124.199C212.239 124.199 209.744 127.133 209.744 130.753C209.744 134.372 212.239 137.307 215.315 137.307Z" fill="#DDFF00"/>
</g>
<defs>
<clipPath id="clip0_118_34">
<rect width="250" height="250" fill="white"/>
</clipPath>
</defs>
</svg>
