<svg width="250" height="250" viewBox="0 0 250 250" fill="none" xmlns="http://www.w3.org/2000/svg">
<g clip-path="url(#clip0_118_86)">
<path d="M215.354 63.2459H184.64C182.058 63.2459 179.958 60.8333 179.958 57.8679V22.5878C179.958 19.6223 182.058 17.2098 184.64 17.2098H215.354C217.935 17.2098 220.035 19.6223 220.035 22.5878V57.8679C220.035 60.8333 217.935 63.2459 215.354 63.2459ZM184.64 18.0703C182.468 18.0703 180.707 20.0928 180.707 22.5878V57.8679C180.707 60.3628 182.468 62.3854 184.64 62.3854H206.154C213.407 62.3854 219.286 55.6317 219.286 47.3006V22.5878C219.286 20.0928 217.526 18.0703 215.354 18.0703H184.64Z" fill="#F2F2F2"/>
<path d="M215.354 63.2459H184.64C182.058 63.2459 179.958 60.8333 179.958 57.8679V22.5878C179.958 19.6223 182.058 17.2098 184.64 17.2098H215.354C217.935 17.2098 220.035 19.6223 220.035 22.5878V57.8679C220.035 60.8333 217.935 63.2459 215.354 63.2459Z" fill="white"/>
<path d="M199.809 9.46537C202.085 9.46537 203.93 7.34648 203.93 4.73269C203.93 2.1189 202.085 0 199.809 0C197.534 0 195.689 2.1189 195.689 4.73269C195.689 7.34648 197.534 9.46537 199.809 9.46537Z" fill="#F2F2F2"/>
<path d="M175.099 132.822H144.386C141.804 132.822 139.704 130.41 139.704 127.444V92.1642C139.704 89.1988 141.804 86.7862 144.386 86.7862H175.099C177.681 86.7862 179.781 89.1988 179.781 92.1642V127.444C179.781 130.41 177.681 132.822 175.099 132.822ZM144.386 87.6467C142.213 87.6467 140.453 89.6693 140.453 92.1642V127.444C140.453 129.939 142.213 131.962 144.386 131.962C163.52 131.962 179.032 114.144 179.032 92.1643C179.032 89.6693 177.271 87.6467 175.099 87.6467H144.386Z" fill="#F2F2F2"/>
<path d="M159.555 79.0418C161.831 79.0418 163.675 76.9229 163.675 74.3091C163.675 71.6953 161.831 69.5764 159.555 69.5764C157.28 69.5764 155.435 71.6953 155.435 74.3091C155.435 76.9229 157.28 79.0418 159.555 79.0418Z" fill="#F2F2F2"/>
<path d="M160.811 107.428C159.43 107.85 157.823 106.775 157.532 105.141C157.229 103.444 158.537 101.599 160.041 101.587C161.569 101.574 162.889 103.341 162.641 105.067C162.483 106.162 161.895 107.116 161.361 108.011C160.765 109.009 160.143 109.985 159.501 110.944C158.05 113.114 156.502 115.195 154.957 117.276C154.628 117.72 154.859 118.326 155.354 118.378L164.143 119.302C164.863 119.377 164.858 118.086 164.143 118.011L155.354 117.087L155.752 118.189C157.453 115.896 159.153 113.598 160.738 111.195C161.496 110.046 162.261 108.879 162.913 107.645C163.486 106.559 163.921 105.32 163.756 104.029C163.47 101.804 161.545 100.017 159.58 100.342C157.63 100.664 156.125 102.956 156.406 105.198C156.715 107.658 159.055 109.3 161.11 108.673C161.808 108.459 161.512 107.214 160.811 107.428Z" fill="#F2F2F2"/>
<path d="M245.318 175.97H214.604C212.023 175.97 209.922 173.557 209.922 170.592V135.312C209.922 132.346 212.023 129.934 214.604 129.934H245.318C247.9 129.934 250 132.346 250 135.312V170.592C250 173.557 247.9 175.97 245.318 175.97ZM214.604 130.794C212.432 130.794 210.672 132.817 210.672 135.312V170.592C210.672 173.087 212.432 175.109 214.604 175.109C233.739 175.109 249.251 157.291 249.251 135.312C249.251 132.817 247.49 130.794 245.318 130.794H214.604Z" fill="#F2F2F2"/>
<path d="M229.774 122.189C232.049 122.189 233.894 120.07 233.894 117.457C233.894 114.843 232.049 112.724 229.774 112.724C227.498 112.724 225.654 114.843 225.654 117.457C225.654 120.07 227.498 122.189 229.774 122.189Z" fill="#F2F2F2"/>
<path d="M226.549 145.406C228.472 144.283 231.029 145.105 231.731 147.583C232.033 148.644 231.933 149.821 231.326 150.719C230.704 151.64 229.736 152.136 228.729 152.02V153.311C229.986 153.404 231.247 153.925 232.131 154.987C232.935 155.953 233.34 157.418 233.014 158.724C232.699 159.99 231.644 160.931 230.5 160.999C229.361 161.067 228.232 160.228 227.804 159.013C227.537 158.253 226.45 158.585 226.721 159.356C227.678 162.077 230.595 163.189 232.692 161.381C234.83 159.536 234.613 155.904 232.769 153.894C231.676 152.704 230.211 152.13 228.729 152.02C228 151.966 228.02 153.23 228.729 153.311C230.067 153.465 231.387 152.719 232.201 151.512C233.02 150.3 233.225 148.694 232.815 147.239C231.884 143.94 228.564 142.784 225.982 144.292C225.337 144.669 225.905 145.782 226.549 145.406Z" fill="#F2F2F2"/>
<path d="M59.1635 178.982H28.4498C25.8682 178.982 23.7679 176.569 23.7679 173.604V138.324C23.7679 135.358 25.8682 132.945 28.4498 132.945H59.1635C61.7451 132.945 63.8454 135.358 63.8454 138.324V173.604C63.8454 176.569 61.7451 178.982 59.1635 178.982Z" fill="#3F3D56"/>
<path d="M47.5717 138.777C49.4459 137.652 50.1714 134.995 49.192 132.842C49.0934 132.625 48.9781 132.426 48.8544 132.236L53.9451 92.9327L46.4193 92.9881L43.2789 131.572C41.9778 132.878 41.569 135.079 42.4047 136.916C43.384 139.069 45.6973 139.902 47.5717 138.777Z" fill="#FFB6B6"/>
<path d="M48.804 65.4997C48.804 65.4997 46.5547 64.7967 46.2278 70.4574C45.9661 74.9892 42.0348 102.6 43.134 108.778C41.7295 109.522 40.8827 111.282 41.1742 113.11L52.5381 111.937C54.097 109.568 54.1051 106.914 53.2118 106.36L54.1244 98.2242L59.3992 71.7212L50.4378 65.9747L48.804 65.4997Z" fill="#E6E6E6"/>
<path d="M56.2573 239.516L60.5758 239.516L62.6302 220.382L56.2565 220.383L56.2573 239.516Z" fill="#FFB6B6"/>
<path d="M62.0128 239.963V236.6L60.8775 236.679L56.2561 236.994L55.1865 237.069L54.3688 248.332L54.325 248.936H57.3913L57.4899 248.336L57.9352 245.611L59.0851 248.336L59.337 248.936H67.4664C67.9519 248.936 68.3936 248.718 68.7185 248.357C69.0726 247.976 69.2916 247.435 69.2916 246.835C69.6348 244.994 62.8743 241.015 62.0128 239.963Z" fill="#2F2E41"/>
<path d="M37.296 233.818L42.1211 234.913L46.6158 217.273L41.7724 215.389L37.296 233.818Z" fill="#FFB6B6"/>
<path d="M42.7352 236.026L43.5221 232.786L42.41 232.513L37.8851 231.389L36.8372 231.131L33.4142 241.727L33.2307 242.295L36.1842 243.242L36.4194 242.695L37.4861 240.207L37.956 243.187L38.0583 243.843L45.8885 246.352C46.3562 246.502 46.8326 246.429 47.23 246.182C47.6603 245.923 47.9978 245.47 48.1381 244.893C48.8994 243.225 43.3188 237.305 42.7352 236.026Z" fill="#2F2E41"/>
<path d="M77.6457 131.685L77.7569 130.343L72.9537 115.217L52.4839 119.751C52.4839 119.751 41.934 134.679 44.28 144.56C44.9162 147.24 46.2761 178.826 45.8667 179.842C36.4376 203.235 39.0718 219.736 39.0718 219.736C39.0718 219.736 42.0519 222.722 47.1567 224.201C48.4886 224.587 58.6168 172.107 58.6168 172.107C58.6168 172.107 58.1707 175.383 57.5485 180.362C55.6264 195.745 52.6071 226.714 55.2897 228.317C58.8405 230.44 62.2375 230.046 62.2375 230.046C62.2375 230.046 73.308 191.837 70.962 182.854" fill="#2F2E41"/>
<path d="M67.591 66.6879L61.2688 58.8777L56.4629 58.5567L49.9868 66.2576L47.5856 74.037C44.8976 81.5371 44.2828 89.8053 45.8246 97.7203L49.513 116.656C49.513 116.656 50.0811 118.888 48.5924 119.156C47.1037 119.424 47.2822 122.713 47.2822 122.713C47.2822 122.713 47.5854 125.564 46.1398 125.815C44.6942 126.066 40.8396 126.066 44.2126 131.047C47.5856 136.029 74.264 117.188 74.264 117.188L74.3933 93.8336C74.3933 93.8336 81.9079 82.2399 73.8152 75.6L67.591 66.6879Z" fill="#E6E6E6"/>
<path d="M83.5096 148.864H52.796C50.2143 148.864 48.114 146.452 48.114 143.486V108.206C48.114 105.241 50.2143 102.828 52.796 102.828H83.5096C86.0913 102.828 88.1916 105.241 88.1916 108.206V143.486C88.1916 146.452 86.0913 148.864 83.5096 148.864Z" fill="white"/>
<path d="M78.845 131.514C80.2599 129.709 80.1331 126.928 78.5616 125.302C78.4034 125.139 78.2347 124.998 78.0613 124.87L70.8988 85.995L63.8624 89.0618L72.6342 126.481C71.8113 128.226 72.0964 130.453 73.4373 131.839C75.0088 133.465 77.4299 133.319 78.845 131.514Z" fill="#FFB6B6"/>
<path d="M64.6388 66.4837C64.6388 66.4837 66.7624 65.3794 67.8676 70.9087C68.7523 75.3353 76.4498 101.879 76.2185 108.179C77.7079 108.657 78.7873 110.241 78.7521 112.099L67.3702 113.013C65.5037 110.958 65.1289 108.34 65.9343 107.63L63.9088 99.7633L55.0379 74.5584L63.0914 67.2506L64.6388 66.4837Z" fill="#E6E6E6"/>
<path d="M76.125 242.217C76.8988 242.273 77.3265 241.168 76.7411 240.525L76.6828 240.259C76.6905 240.238 76.6982 240.216 76.706 240.195C77.4885 238.052 80.1406 238.066 80.9165 240.213C81.6051 242.118 82.4819 244.027 82.6978 246.041C82.7946 246.93 82.751 247.836 82.5793 248.709C84.1929 244.66 85.042 240.239 85.042 235.793C85.042 234.675 84.9888 233.558 84.8799 232.444C84.7904 231.532 84.667 230.627 84.5074 229.729C83.6437 224.877 81.7737 220.256 79.0763 216.396C77.7795 215.582 76.6982 214.309 76.045 212.783C75.8103 212.233 75.6265 211.641 75.5394 211.038C75.6869 211.06 76.0958 208.479 75.9845 208.32C76.1901 207.962 76.5582 207.784 76.7828 207.434C77.8999 205.694 79.4389 205.998 80.2423 208.362C81.9586 209.357 81.9752 211.007 80.9221 212.594C80.2521 213.604 80.1601 214.97 79.5722 216.051C79.6327 216.14 79.6956 216.226 79.7561 216.315C80.8651 217.949 81.8244 219.706 82.633 221.551C82.4045 219.5 82.7419 217.03 83.3171 215.437C83.9719 213.623 85.1992 212.095 86.28 210.526C87.5783 208.642 90.2404 209.464 90.4691 211.852C90.4713 211.876 90.4735 211.899 90.4756 211.922C90.315 212.026 90.1578 212.136 90.0041 212.253C89.1279 212.919 89.4307 214.479 90.469 214.663L90.4925 214.667C90.4344 215.332 90.3352 215.99 90.1901 216.638C91.5766 222.797 88.5832 225.04 84.309 225.141C84.2147 225.197 84.1227 225.252 84.0284 225.305C84.4614 226.706 84.8074 228.142 85.0638 229.598C85.2936 230.885 85.4533 232.185 85.5428 233.492C85.6541 235.139 85.6444 236.796 85.5234 238.441L85.5307 238.382C85.8379 236.571 86.6943 234.878 87.9378 233.706C89.7902 231.958 92.4073 231.314 94.4058 229.909C95.3678 229.233 96.6005 230.107 96.4326 231.388L96.4244 231.449C96.1268 231.588 95.8365 231.749 95.5559 231.93C95.3954 232.034 95.2381 232.144 95.0845 232.261C94.2082 232.927 94.511 234.487 95.5493 234.671L95.5729 234.675C95.5898 234.678 95.6043 234.681 95.6212 234.684C95.1108 236.076 94.3995 237.368 93.5093 238.482C92.6423 243.859 88.9187 244.369 84.9356 242.804H84.9332C84.4977 244.982 83.8614 247.111 83.0437 249.14H76.2942C76.27 249.053 76.2482 248.964 76.2264 248.878C76.8506 248.923 77.4796 248.881 78.0941 248.75C77.5933 248.045 77.0925 247.333 76.5917 246.627C76.5796 246.613 76.5699 246.6 76.5603 246.586C76.3063 246.224 76.0498 245.866 75.7958 245.505L75.7957 245.504C75.7798 244.395 75.8957 243.29 76.125 242.217Z" fill="#F2F2F2"/>
<path d="M23.0695 243.078C22.2957 243.133 21.868 242.029 22.4534 241.385L22.5117 241.119C22.504 241.098 22.4963 241.077 22.4886 241.056C21.706 238.912 19.0539 238.927 18.278 241.073C17.5894 242.979 16.7126 244.887 16.4967 246.902C16.3999 247.791 16.4435 248.697 16.6152 249.569C15.0016 245.52 14.1525 241.099 14.1525 236.653C14.1525 235.536 14.2057 234.419 14.3146 233.304C14.4041 232.393 14.5275 231.487 14.6871 230.589C15.5508 225.737 17.4209 221.116 20.1183 217.256C21.415 216.442 22.4963 215.169 23.1495 213.644C23.3842 213.094 23.5681 212.502 23.6551 211.899C23.5076 211.921 23.0987 209.339 23.21 209.181C23.0044 208.822 22.6363 208.644 22.4117 208.294C21.2946 206.555 19.7556 206.859 18.9522 209.223C17.2359 210.218 17.2193 211.868 18.2724 213.455C18.9424 214.465 19.0344 215.831 19.6223 216.912C19.5618 217.001 19.4989 217.087 19.4384 217.176C18.3294 218.81 17.3701 220.566 16.5615 222.411C16.79 220.361 16.4526 217.89 15.8774 216.298C15.2226 214.483 13.9953 212.955 12.9145 211.386C11.6162 209.502 8.95414 210.325 8.72542 212.713C8.7232 212.736 8.72105 212.759 8.71893 212.782C8.87947 212.886 9.03674 212.997 9.19037 213.114C10.0666 213.779 9.7638 215.34 8.72551 215.524L8.702 215.528C8.76007 216.192 8.85926 216.851 9.0044 217.498C7.61787 223.657 10.6113 225.901 14.8855 226.001C14.9798 226.057 15.0718 226.113 15.1661 226.165C14.7331 227.566 14.3871 229.003 14.1307 230.459C13.9009 231.745 13.7412 233.046 13.6517 234.352C13.5404 236 13.5501 237.656 13.6711 239.301L13.6638 239.243C13.3566 237.431 12.5002 235.739 11.2567 234.566C9.40427 232.818 6.78716 232.174 4.78874 230.769C3.82675 230.093 2.59404 230.967 2.76193 232.248L2.77011 232.31C3.06767 232.449 3.35796 232.61 3.6386 232.79C3.79913 232.894 3.9564 233.005 4.11003 233.122C4.9863 233.787 4.68346 235.348 3.64518 235.532L3.62165 235.536C3.60472 235.539 3.5902 235.541 3.57329 235.544C4.08374 236.936 4.79497 238.229 5.68524 239.343C6.5522 244.72 10.2758 245.23 14.2589 243.664H14.2613C14.6968 245.843 15.3331 247.971 16.1508 250H22.9003C22.9245 249.914 22.9463 249.825 22.9681 249.739C22.3439 249.783 21.7149 249.742 21.1004 249.611C21.6012 248.905 22.102 248.194 22.6028 247.488C22.6149 247.474 22.6246 247.46 22.6342 247.446C22.8882 247.085 23.1447 246.726 23.3987 246.365L23.3988 246.365C23.4147 245.256 23.2988 244.15 23.0695 243.078Z" fill="#F2F2F2"/>
<path d="M0 249.315C0 249.599 0.198526 249.827 0.445745 249.827H95.3172C95.5644 249.827 95.7629 249.599 95.7629 249.315C95.7629 249.031 95.5644 248.803 95.3172 248.803H0.445745C0.198526 248.803 0 249.031 0 249.315Z" fill="#CCCCCC"/>
<path d="M61.2353 53.4509C66.2902 53.4509 70.388 48.7438 70.388 42.9373C70.388 37.1309 66.2902 32.4238 61.2353 32.4238C56.1803 32.4238 52.0825 37.1309 52.0825 42.9373C52.0825 48.7438 56.1803 53.4509 61.2353 53.4509Z" fill="#FFB6B6"/>
<path d="M69.7963 42.527C69.8225 42.527 69.8862 42.527 70.0061 42.5313C70.3544 42.5571 69.8825 42.5356 69.7963 42.527Z" fill="#2F2E41"/>
<path d="M74.6693 41.5245C74.6019 41.7138 74.3809 41.8687 74.07 41.9935C73.4782 41.1287 72.7104 40.4274 71.8339 39.9928C72.2272 40.7286 72.5493 41.5116 72.789 42.3291C71.9388 42.471 70.9912 42.5313 70.3806 42.5356C70.2346 42.5356 70.1072 42.5356 70.0061 42.5313C69.8563 42.2258 69.6165 41.731 69.4105 41.219C69.3918 42.6173 67.6951 46.7391 67.8337 50.224C68.0022 54.3931 68.1932 58.9408 68.1932 58.9408C67.5827 59.1172 66.8448 59.242 66.0021 59.3194C65.0732 57.3618 64.384 55.1718 64.0132 52.9518C63.972 52.7152 63.9383 52.4785 63.9046 52.2419C63.8259 52.5129 63.751 52.7883 63.6873 53.068C63.4064 54.2296 63.2416 55.4816 63.1891 56.781C63.1517 57.6371 63.1667 58.5062 63.2229 59.3882C58.6008 60.4681 52.8851 60.3563 48.75 57.7189C48.8886 57.2843 48.9935 56.8369 49.0609 56.3808C49.2856 54.8836 47.4728 54.6728 46.2667 55.5892C45.0606 54.1995 44.1467 52.4355 43.6523 50.2283C51.5329 46.2572 43.2365 41.3696 49.3231 34.3265C48.5889 28.2084 63.294 26.4401 66.1406 31.8784C66.7624 31.3363 68.6989 31.3621 69.5229 31.7579C70.3469 32.1538 70.9837 32.8207 71.6054 33.466C72.0212 33.9049 71.8264 34.7783 71.5605 35.4323C72.8677 34.7137 75.7855 38.4482 74.6693 41.5245Z" fill="#2F2E41"/>
</g>
<defs>
<clipPath id="clip0_118_86">
<rect width="250" height="250" fill="white"/>
</clipPath>
</defs>
</svg>
