<svg width="80" height="80" viewBox="0 0 80 80" fill="none" xmlns="http://www.w3.org/2000/svg">
<path d="M36.6667 23.3333V13.3333C36.6667 12.4493 37.0178 11.6014 37.643 10.9763C38.2681 10.3512 39.1159 10 40 10H70C70.884 10 71.7319 10.3512 72.357 10.9763C72.9821 11.6014 73.3333 12.4493 73.3333 13.3333V66.6667C73.3333 67.5507 72.9821 68.3986 72.357 69.0237C71.7319 69.6488 70.884 70 70 70H9.99999C9.11593 70 8.26809 69.6488 7.64297 69.0237C7.01785 68.3986 6.66666 67.5507 6.66666 66.6667V26.6667C6.66666 25.7826 7.01785 24.9348 7.64297 24.3096C8.26809 23.6845 9.11593 23.3333 9.99999 23.3333H36.6667ZM16.6667 53.3333V60H33.3333V53.3333H16.6667ZM46.6667 53.3333V60H63.3333V53.3333H46.6667ZM46.6667 43.3333V50H63.3333V43.3333H46.6667ZM46.6667 33.3333V40H63.3333V33.3333H46.6667ZM16.6667 43.3333V50H33.3333V43.3333H16.6667Z" fill="white"/>
</svg>
