<svg width="80" height="80" viewBox="0 0 80 80" fill="none" xmlns="http://www.w3.org/2000/svg">
<path d="M40 35.5111C45.8419 35.5111 50.5778 30.8349 50.5778 25.0666C50.5778 19.2983 45.8419 14.6222 40 14.6222C34.1581 14.6222 29.4222 19.2983 29.4222 25.0666C29.4222 30.8349 34.1581 35.5111 40 35.5111Z" fill="white"/>
<path d="M23.9556 26.1111H25.0222V25.1556C25.0287 22.3769 25.8126 19.6555 27.2853 17.2992C28.758 14.9429 30.8607 13.0457 33.3556 11.8223C32.617 10.1213 31.4315 8.6521 29.925 7.57077C28.4185 6.48945 26.6472 5.83634 24.7993 5.68082C22.9515 5.52531 21.096 5.87319 19.4299 6.68752C17.7639 7.50184 16.3495 8.75221 15.337 10.3058C14.3245 11.8594 13.7517 13.6583 13.6795 15.5113C13.6072 17.3643 14.0382 19.2022 14.9266 20.83C15.815 22.4577 17.1277 23.8144 18.7253 24.756C20.3229 25.6976 22.1456 26.1889 24 26.1778L23.9556 26.1111ZM55.0222 25.0667V26.0222H56.0889C57.9186 26.0039 59.7095 25.4926 61.2731 24.5422C62.8367 23.5919 64.1151 22.2375 64.9739 20.6218C65.8327 19.0061 66.24 17.1887 66.153 15.361C66.066 13.5333 65.4879 11.7629 64.4795 10.2361C63.4711 8.70922 62.0698 7.48246 60.423 6.68491C58.7762 5.88736 56.9448 5.54851 55.1217 5.70404C53.2985 5.85956 51.551 6.5037 50.0631 7.56866C48.5752 8.63362 47.4019 10.08 46.6667 11.7556C49.1623 12.9742 51.2673 14.8666 52.7438 17.2189C54.2204 19.5711 55.0096 22.2895 55.0222 25.0667ZM49.5333 36.5556C53.9513 37.4316 58.2232 38.9279 62.2222 41C62.7858 41.3092 63.296 41.7068 63.7333 42.1778H75.5556V34.5778C75.5577 34.2863 75.4802 33.9998 75.3314 33.7491C75.1825 33.4985 74.9681 33.2932 74.7111 33.1556C68.9514 30.143 62.5444 28.5793 56.0444 28.6H54.5778C53.8076 31.7305 52.0364 34.5239 49.5333 36.5556ZM14.5111 46.4889C14.5071 45.3697 14.8093 44.2708 15.3851 43.3111C15.9609 42.3514 16.7884 41.5676 17.7778 41.0445C21.7768 38.9723 26.0487 37.476 30.4667 36.6C27.9757 34.5856 26.2056 31.8174 25.4222 28.7111H23.9556C17.4556 28.6904 11.0486 30.2541 5.28889 33.2667C5.03193 33.4043 4.81746 33.6096 4.66863 33.8602C4.51981 34.1109 4.44229 34.3974 4.44444 34.6889V48.8889H14.5111V46.4889ZM47.6889 59.3111H60.9333V62.4223H47.6889V59.3111Z" fill="white"/>
<path d="M72.9111 47.2445H57.6444V45.0223C57.6444 44.4329 57.4103 43.8677 56.9936 43.4509C56.5768 43.0342 56.0116 42.8001 55.4222 42.8001C54.8329 42.8001 54.2676 43.0342 53.8509 43.4509C53.4341 43.8677 53.2 44.4329 53.2 45.0223V47.2445H48.8889V40.9556C45.9656 40.3391 42.9876 40.019 40 40.0001C32.9865 39.9736 26.0735 41.6675 19.8667 44.9334C19.5902 45.0768 19.3589 45.2938 19.1981 45.5605C19.0373 45.8272 18.9534 46.1331 18.9556 46.4445V58.9112H34.7556V72.4445C34.7556 73.0339 34.9897 73.5991 35.4064 74.0159C35.8232 74.4326 36.3884 74.6667 36.9778 74.6667H72.9111C73.5005 74.6667 74.0657 74.4326 74.4825 74.0159C74.8992 73.5991 75.1333 73.0339 75.1333 72.4445V49.4667C75.1333 48.8774 74.8992 48.3121 74.4825 47.8954C74.0657 47.4786 73.5005 47.2445 72.9111 47.2445ZM70.6889 70.2667H39.2V51.689H53.2V53.7112C53.2 54.3005 53.4341 54.8658 53.8509 55.2825C54.2676 55.6993 54.8329 55.9334 55.4222 55.9334C56.0116 55.9334 56.5768 55.6993 56.9936 55.2825C57.4103 54.8658 57.6444 54.3005 57.6444 53.7112V51.689H70.6889V70.2667Z" fill="white"/>
</svg>
