<svg width="80" height="80" viewBox="0 0 80 80" fill="none" xmlns="http://www.w3.org/2000/svg">
<path d="M71.1844 16.4438L41.1844 6.44378C40.4161 6.18443 39.5839 6.18443 38.8156 6.44378L8.81562 16.4438C8.09979 16.6809 7.47206 17.1282 7.01437 17.7275C6.55669 18.3268 6.2903 19.0502 6.24999 19.8032C6.24654 19.8687 6.24654 19.9344 6.24999 20V45C6.24999 45.9946 6.64508 46.9484 7.34834 47.6517C8.0516 48.3549 9.00543 48.75 9.99999 48.75C10.9946 48.75 11.9484 48.3549 12.6516 47.6517C13.3549 46.9484 13.75 45.9946 13.75 45V25.2032L21.1594 27.6719C18.8599 32.0735 18.1765 37.142 19.2283 41.9953C20.28 46.8487 23.0003 51.1796 26.9156 54.2344C21.7919 56.761 17.4557 60.6391 14.375 65.45C14.0976 65.8624 13.9049 66.3257 13.8081 66.8132C13.7113 67.3006 13.7124 67.8025 13.8113 68.2895C13.9102 68.7765 14.1049 69.2391 14.3841 69.6502C14.6633 70.0613 15.0214 70.4129 15.4377 70.6844C15.8539 70.9559 16.32 71.1419 16.8088 71.2317C17.2976 71.3215 17.7993 71.3132 18.2849 71.2074C18.7705 71.1015 19.2302 70.9003 19.6373 70.6152C20.0444 70.3301 20.3907 69.967 20.6562 69.5469C25.1156 62.6844 32.1875 58.75 40 58.75C47.8125 58.75 54.8844 62.6844 59.3594 69.5469C59.6249 69.967 59.9712 70.3301 60.3783 70.6152C60.7854 70.9003 61.2451 71.1015 61.7307 71.2074C62.2163 71.3132 62.718 71.3215 63.2068 71.2317C63.6956 71.1419 64.1617 70.9559 64.5779 70.6844C64.9942 70.4129 65.3523 70.0613 65.6315 69.6502C65.9108 69.2391 66.1054 68.7765 66.2043 68.2895C66.3032 67.8025 66.3043 67.3006 66.2075 66.8132C66.1107 66.3257 65.918 65.8624 65.6406 65.45C62.5569 60.6335 58.215 56.7519 53.0844 54.225C56.9997 51.1703 59.72 46.8393 60.7717 41.986C61.8235 37.1326 61.1401 32.0641 58.8406 27.6625L71.1844 23.5469C71.9301 23.2974 72.5785 22.8198 73.0379 22.1816C73.4974 21.5435 73.7446 20.777 73.7446 19.9907C73.7446 19.2043 73.4974 18.4378 73.0379 17.7997C72.5785 17.1615 71.9301 16.6839 71.1844 16.4344V16.4438ZM40 13.9438L58.1406 20L40 26.0469L21.875 20L40 13.9438ZM53.75 37.5C53.7504 39.6358 53.2533 41.7422 52.298 43.6524C51.3428 45.5626 49.9558 47.2241 48.2468 48.505C46.5378 49.7859 44.554 50.6512 42.4525 51.0321C40.351 51.4131 38.1897 51.2992 36.1399 50.6997C34.09 50.1001 32.208 49.0312 30.6431 47.5779C29.0781 46.1245 27.8733 44.3266 27.124 42.3266C26.3747 40.3266 26.1016 38.1796 26.3263 36.0557C26.5511 33.9318 27.2675 31.8895 28.4187 30.0907L38.8156 33.5563C39.5841 33.8145 40.4159 33.8145 41.1844 33.5563L51.5812 30.0907C52.9993 32.3015 53.7521 34.8734 53.75 37.5Z" fill="white"/>
</svg>
