<svg width="80" height="80" viewBox="0 0 80 80" fill="none" xmlns="http://www.w3.org/2000/svg">
<path d="M52.665 51.6675C55.7325 49.9625 55.335 43.3925 51.78 36.9825C50.255 34.2225 48.38 31.9875 46.505 30.425C44.2628 32.0888 41.547 32.9912 38.755 33C35.9587 32.9938 33.2381 32.0913 30.9925 30.425C29.1175 31.9875 27.2475 34.225 25.7175 36.9825C22.16 43.39 21.7675 49.9625 24.8425 51.6675C26.2125 52.4475 27.6575 51.8625 29.1475 50.4275C28.8684 51.9735 28.7287 53.5415 28.73 55.1125C28.73 62.4575 31.58 68.3925 35.0875 68.3925C37.2025 68.3925 38.25 66.23 38.7525 62.9225C39.2525 66.2075 40.3025 68.3925 42.4025 68.3925C45.895 68.3925 48.7675 62.455 48.7675 55.1125C48.7675 53.4625 48.6125 51.8875 48.3475 50.43C49.8475 51.8675 51.2875 52.4625 52.6625 51.6725L52.665 51.6675ZM38.75 30.5C40.1684 30.5212 41.5769 30.26 42.8934 29.7318C44.21 29.2035 45.4083 28.4187 46.4187 27.4229C47.429 26.4272 48.2313 25.2404 48.7787 23.9317C49.3261 22.623 49.6077 21.2185 49.6072 19.8C49.6067 18.3814 49.3241 16.9771 48.7758 15.6688C48.2274 14.3604 47.4244 13.1742 46.4133 12.1792C45.4022 11.1842 44.2034 10.4002 42.8865 9.87283C41.5695 9.34549 40.1609 9.08533 38.7425 9.10751C35.934 9.15142 33.2555 10.2982 31.2852 12.3001C29.315 14.3021 28.2112 16.9986 28.2122 19.8075C28.2132 22.6163 29.3189 25.312 31.2905 27.3126C33.2621 29.3132 35.9415 30.4581 38.75 30.5ZM60.235 37.285C62.5195 37.2182 64.6881 36.2638 66.2804 34.6243C67.8727 32.9848 68.7633 30.7892 68.7633 28.5038C68.7633 26.2183 67.8727 24.0228 66.2804 22.3832C64.6881 20.7437 62.5195 19.7893 60.235 19.7225C57.9054 19.7228 55.6713 20.6486 54.0243 22.2961C52.3773 23.9436 51.4522 26.1779 51.4525 28.5075C51.4528 30.8371 52.3786 33.0712 54.0261 34.7182C55.6736 36.3652 57.9079 37.2903 60.2375 37.29L60.235 37.285ZM70.935 42.61C69.68 40.34 68.145 38.505 66.605 37.2225C64.7629 38.5874 62.5326 39.3276 60.24 39.335C58.35 39.335 56.59 38.8175 55.05 37.96C56.29 40.6925 57.0575 43.46 57.2 45.935C57.435 49.725 56.25 52.535 53.88 53.8475C53.3724 54.1274 52.82 54.3169 52.2475 54.4075C52.105 55.3875 52.0075 56.4075 52.0075 57.4825C52.0075 63.515 54.345 68.3875 57.2275 68.3875C58.9625 68.3875 59.8275 66.6125 60.2375 63.8975C60.645 66.5975 61.5075 68.3875 63.2375 68.3875C66.1 68.3875 68.4625 63.5125 68.4625 57.4875C68.4625 56.13 68.33 54.8375 68.1125 53.6375C69.3425 54.82 70.5275 55.3075 71.6575 54.6575C74.175 53.2575 73.85 47.8625 70.9325 42.6075L70.935 42.61ZM17.265 37.285C19.0013 37.284 20.6983 36.7682 22.1415 35.8029C23.5847 34.8375 24.7093 33.4659 25.3731 31.8615C26.0369 30.2571 26.21 28.4919 25.8707 26.7891C25.5313 25.0862 24.6947 23.5222 23.4666 22.2948C22.2385 21.0674 20.6741 20.2317 18.971 19.8933C17.268 19.555 15.5029 19.7291 13.8989 20.3938C12.2948 21.0585 10.9239 22.1839 9.95934 23.6276C8.99481 25.0714 8.47999 26.7687 8.47999 28.505C8.48066 30.8347 9.40643 33.0688 11.0538 34.7162C12.7012 36.3636 14.9353 37.2893 17.265 37.29V37.285ZM23.6025 53.84C19.6225 51.6275 19.2575 45.03 22.4625 37.955C20.8784 38.8546 19.0892 39.3307 17.2675 39.3375C14.8775 39.3375 12.6875 38.5375 10.8925 37.2225C9.35499 38.5025 7.82249 40.3375 6.56249 42.605C3.64499 47.865 3.32499 53.26 5.84499 54.655C6.96999 55.3 8.15749 54.8175 9.37999 53.64C9.15757 54.9096 9.04465 56.196 9.04249 57.485C9.04249 63.515 11.38 68.385 14.2625 68.385C15.9975 68.385 16.8625 66.61 17.2725 63.8975C17.685 66.5975 18.5475 68.3875 20.2725 68.3875C23.14 68.3875 25.4975 63.5125 25.4975 57.4875C25.4975 56.405 25.3975 55.3825 25.255 54.4025C24.6761 54.3123 24.1176 54.1211 23.605 53.8375L23.6025 53.84Z" fill="white"/>
</svg>
